HIERARCHY
ROOT mixamorig:Hips
{
	OFFSET -0.000007 0.000048 -99.791939
	CHANNELS 6 Xposition Yposition Zposition Xrotation Yrotation Zrotation
	JOINT mixamorig:Spine
	{
		OFFSET -0.000008 -1.227335 -9.923462
		CHANNELS 3 Xrotation Yrotation Zrotation
		JOINT mixamorig:Spine1
		{
			OFFSET -0.001162 -1.422341 -11.645439
			CHANNELS 3 Xrotation Yrotation Zrotation
			JOINT mixamorig:Spine2
			{
				OFFSET -0.001082 -1.626459 -13.360199
				CHANNELS 3 Xrotation Yrotation Zrotation
				JOINT mixamorig:Neck
				{
					OFFSET -0.001294 0.792904 -15.032486
					CHANNELS 3 Xrotation Yrotation Zrotation
					JOINT mixamorig:Head
					{
						OFFSET -0.000902 3.142429 -10.321838
						CHANNELS 3 Xrotation Yrotation Zrotation
						JOINT mixamorig:HeadTop_End
						{
							OFFSET -0.001464 6.636400 -18.474670
							CHANNELS 3 Xrotation Yrotation Zrotation
							End Site
							{
								OFFSET -0.001724 0.000000 -19.630463
							}
						}
					}
				}
				JOINT mixamorig:LeftShoulder
				{
					OFFSET 6.105025 0.705547 -9.110947
					CHANNELS 3 Xrotation Yrotation Zrotation
					JOINT mixamorig:LeftArm
					{
						OFFSET 12.655060 -2.600928 0.264816
						CHANNELS 3 Xrotation Yrotation Zrotation
						JOINT mixamorig:LeftForeArm
						{
							OFFSET 27.404680 -0.000007 -0.002457
							CHANNELS 3 Xrotation Yrotation Zrotation
							JOINT mixamorig:LeftHand
							{
								OFFSET 27.614456 0.000007 -0.002457
								CHANNELS 3 Xrotation Yrotation Zrotation
								JOINT mixamorig:LeftHandThumb1
								{
									OFFSET 3.789009 3.002973 2.166824
									CHANNELS 3 Xrotation Yrotation Zrotation
									JOINT mixamorig:LeftHandThumb2
									{
										OFFSET 3.675636 2.122010 2.121704
										CHANNELS 3 Xrotation Yrotation Zrotation
										JOINT mixamorig:LeftHandThumb3
										{
											OFFSET 3.394531 1.959746 1.959473
											CHANNELS 3 Xrotation Yrotation Zrotation
											JOINT mixamorig:LeftHandThumb4
											{
												OFFSET 2.679504 1.546951 1.546753
												CHANNELS 3 Xrotation Yrotation Zrotation
												End Site
												{
													OFFSET 2.400604 1.964751 1.530380
												}
											}
										}
									}
								}
								JOINT mixamorig:LeftHandIndex1
								{
									OFFSET 12.266647 2.822040 0.230743
									CHANNELS 3 Xrotation Yrotation Zrotation
									JOINT mixamorig:LeftHandIndex2
									{
										OFFSET 3.891968 0.000037 -0.000336
										CHANNELS 3 Xrotation Yrotation Zrotation
										JOINT mixamorig:LeftHandIndex3
										{
											OFFSET 3.415161 -0.000010 -0.000305
											CHANNELS 3 Xrotation Yrotation Zrotation
											JOINT mixamorig:LeftHandIndex4
											{
												OFFSET 3.077995 -0.000009 -0.000275
												CHANNELS 3 Xrotation Yrotation Zrotation
												End Site
												{
													OFFSET 3.077988 0.000131 -0.000259
												}
											}
										}
									}
								}
								JOINT mixamorig:LeftHandMiddle1
								{
									OFFSET 12.775536 0.000014 -0.001129
									CHANNELS 3 Xrotation Yrotation Zrotation
									JOINT mixamorig:LeftHandMiddle2
									{
										OFFSET 3.613968 0.000000 -0.000320
										CHANNELS 3 Xrotation Yrotation Zrotation
										JOINT mixamorig:LeftHandMiddle3
										{
											OFFSET 3.459763 -0.000028 -0.000305
											CHANNELS 3 Xrotation Yrotation Zrotation
											JOINT mixamorig:LeftHandMiddle4
											{
												OFFSET 3.680191 0.000031 -0.000320
												CHANNELS 3 Xrotation Yrotation Zrotation
												End Site
												{
													OFFSET 3.680191 -0.004814 -0.000351
												}
											}
										}
									}
								}
								JOINT mixamorig:LeftHandRing1
								{
									OFFSET 12.147018 -2.216636 -0.011063
									CHANNELS 3 Xrotation Yrotation Zrotation
									JOINT mixamorig:LeftHandRing2
									{
										OFFSET 3.601181 0.000033 -0.000320
										CHANNELS 3 Xrotation Yrotation Zrotation
										JOINT mixamorig:LeftHandRing3
										{
											OFFSET 3.307320 -0.000023 -0.000305
											CHANNELS 3 Xrotation Yrotation Zrotation
											JOINT mixamorig:LeftHandRing4
											{
												OFFSET 3.660118 0.000000 -0.000320
												CHANNELS 3 Xrotation Yrotation Zrotation
												End Site
												{
													OFFSET 3.660103 0.005616 -0.000229
												}
											}
										}
									}
								}
								JOINT mixamorig:LeftHandPinky1
								{
									OFFSET 10.908218 -4.725837 0.225174
									CHANNELS 3 Xrotation Yrotation Zrotation
									JOINT mixamorig:LeftHandPinky2
									{
										OFFSET 4.136658 0.001166 -0.000351
										CHANNELS 3 Xrotation Yrotation Zrotation
										JOINT mixamorig:LeftHandPinky3
										{
											OFFSET 2.594826 -0.001180 -0.000244
											CHANNELS 3 Xrotation Yrotation Zrotation
											JOINT mixamorig:LeftHandPinky4
											{
												OFFSET 2.923874 0.000018 -0.000244
												CHANNELS 3 Xrotation Yrotation Zrotation
												End Site
												{
													OFFSET 2.923851 -0.003346 -0.000275
												}
											}
										}
									}
								}
							}
						}
					}
				}
				JOINT mixamorig:RightShoulder
				{
					OFFSET -6.106495 0.705565 -9.109970
					CHANNELS 3 Xrotation Yrotation Zrotation
					JOINT mixamorig:RightArm
					{
						OFFSET -12.655020 -2.600890 0.267136
						CHANNELS 3 Xrotation Yrotation Zrotation
						JOINT mixamorig:RightForeArm
						{
							OFFSET -27.404675 0.000019 0.002365
							CHANNELS 3 Xrotation Yrotation Zrotation
							JOINT mixamorig:RightHand
							{
								OFFSET -27.614464 0.000031 0.002396
								CHANNELS 3 Xrotation Yrotation Zrotation
								JOINT mixamorig:RightHandThumb1
								{
									OFFSET -3.788620 3.002977 2.167480
									CHANNELS 3 Xrotation Yrotation Zrotation
									JOINT mixamorig:RightHandThumb2
									{
										OFFSET -3.675247 2.122009 2.122314
										CHANNELS 3 Xrotation Yrotation Zrotation
										JOINT mixamorig:RightHandThumb3
										{
											OFFSET -3.394188 1.959755 1.960129
											CHANNELS 3 Xrotation Yrotation Zrotation
											JOINT mixamorig:RightHandThumb4
											{
												OFFSET -2.679230 1.546953 1.547195
												CHANNELS 3 Xrotation Yrotation Zrotation
												End Site
												{
													OFFSET -2.398781 1.965949 1.531693
												}
											}
										}
									}
								}
								JOINT mixamorig:RightHandIndex1
								{
									OFFSET -12.266594 2.822051 0.232895
									CHANNELS 3 Xrotation Yrotation Zrotation
									JOINT mixamorig:RightHandIndex2
									{
										OFFSET -3.891968 0.000040 0.000336
										CHANNELS 3 Xrotation Yrotation Zrotation
										JOINT mixamorig:RightHandIndex3
										{
											OFFSET -3.415161 -0.000006 0.000305
											CHANNELS 3 Xrotation Yrotation Zrotation
											JOINT mixamorig:RightHandIndex4
											{
												OFFSET -3.077988 0.000006 0.000275
												CHANNELS 3 Xrotation Yrotation Zrotation
												End Site
												{
													OFFSET -3.077980 -0.008454 -0.000229
												}
											}
										}
									}
								}
								JOINT mixamorig:RightHandMiddle1
								{
									OFFSET -12.775528 0.000025 0.001114
									CHANNELS 3 Xrotation Yrotation Zrotation
									JOINT mixamorig:RightHandMiddle2
									{
										OFFSET -3.613968 0.000005 0.000320
										CHANNELS 3 Xrotation Yrotation Zrotation
										JOINT mixamorig:RightHandMiddle3
										{
											OFFSET -3.459763 -0.000025 0.000305
											CHANNELS 3 Xrotation Yrotation Zrotation
											JOINT mixamorig:RightHandMiddle4
											{
												OFFSET -3.680191 0.000034 0.000320
												CHANNELS 3 Xrotation Yrotation Zrotation
												End Site
												{
													OFFSET -3.680168 0.012581 0.000031
												}
											}
										}
									}
								}
								JOINT mixamorig:RightHandRing1
								{
									OFFSET -12.147003 -2.216624 -0.008942
									CHANNELS 3 Xrotation Yrotation Zrotation
									JOINT mixamorig:RightHandRing2
									{
										OFFSET -3.601196 0.000037 0.000320
										CHANNELS 3 Xrotation Yrotation Zrotation
										JOINT mixamorig:RightHandRing3
										{
											OFFSET -3.307312 -0.000019 0.000290
											CHANNELS 3 Xrotation Yrotation Zrotation
											JOINT mixamorig:RightHandRing4
											{
												OFFSET -3.660118 0.000002 0.000320
												CHANNELS 3 Xrotation Yrotation Zrotation
												End Site
												{
													OFFSET -3.660110 0.002180 -0.000107
												}
											}
										}
									}
								}
								JOINT mixamorig:RightHandPinky1
								{
									OFFSET -10.908173 -4.725826 0.227081
									CHANNELS 3 Xrotation Yrotation Zrotation
									JOINT mixamorig:RightHandPinky2
									{
										OFFSET -4.136642 0.000029 0.000366
										CHANNELS 3 Xrotation Yrotation Zrotation
										JOINT mixamorig:RightHandPinky3
										{
											OFFSET -2.594841 -0.000036 0.000229
											CHANNELS 3 Xrotation Yrotation Zrotation
											JOINT mixamorig:RightHandPinky4
											{
												OFFSET -2.923874 0.000021 0.000259
												CHANNELS 3 Xrotation Yrotation Zrotation
												End Site
												{
													OFFSET -2.923820 -0.012876 -0.000336
												}
											}
										}
									}
								}
							}
						}
					}
				}
			}
		}
	}
	JOINT mixamorig:LeftUpLeg
	{
		OFFSET 9.124458 -0.055378 6.656387
		CHANNELS 3 Xrotation Yrotation Zrotation
		JOINT mixamorig:LeftLeg
		{
			OFFSET 0.244681 -0.515619 40.595421
			CHANNELS 3 Xrotation Yrotation Zrotation
			JOINT mixamorig:LeftFoot
			{
				OFFSET -0.244669 -2.059156 42.047928
				CHANNELS 3 Xrotation Yrotation Zrotation
				JOINT mixamorig:LeftToeBase
				{
					OFFSET 0.373535 13.966561 7.208548
					CHANNELS 3 Xrotation Yrotation Zrotation
					JOINT mixamorig:LeftToe_End
					{
						OFFSET -0.142059 9.997455 0.175224
						CHANNELS 3 Xrotation Yrotation Zrotation
						End Site
						{
							OFFSET -0.142060 9.997459 0.175223
						}
					}
				}
			}
		}
	}
	JOINT mixamorig:RightUpLeg
	{
		OFFSET -9.124448 -0.055378 6.656403
		CHANNELS 3 Xrotation Yrotation Zrotation
		JOINT mixamorig:RightLeg
		{
			OFFSET -0.244680 -0.514290 40.595459
			CHANNELS 3 Xrotation Yrotation Zrotation
			JOINT mixamorig:RightFoot
			{
				OFFSET 0.244670 -2.060535 42.047859
				CHANNELS 3 Xrotation Yrotation Zrotation
				JOINT mixamorig:RightToeBase
				{
					OFFSET -0.373535 13.966558 7.208539
					CHANNELS 3 Xrotation Yrotation Zrotation
					JOINT mixamorig:RightToe_End
					{
						OFFSET 0.141798 9.997463 0.175009
						CHANNELS 3 Xrotation Yrotation Zrotation
						End Site
						{
							OFFSET 0.141798 9.997467 0.175009
						}
					}
				}
			}
		}
	}
}
MOTION
Frames: 5
Frame Time: 0.033333
-118.774529 33.213257 -193.595917 13.501760 -4.109454 -64.912588 15.821315 7.694088 1.222038 7.035715 3.376629 0.804937 12.302759 5.959865 1.134783 13.399809 6.020727 8.312333 -11.646202 7.611092 17.501574 0.000001 -0.000001 -0.000001 24.426006 -8.851669 12.636653 17.122545 -62.001288 53.966103 24.043716 10.705405 29.955707 5.402859 34.395986 0.591730 0.000001 0.000001 0.000003 -0.000001 0.000001 0.000002 0.000001 -0.000006 -0.000000 0.000001 0.000000 -0.000000 -0.000000 0.000005 -0.000001 -0.000000 0.000001 0.000000 -0.000000 0.000001 -0.000001 -0.000000 0.000001 -0.000001 -0.000000 0.000003 -0.000001 -0.000001 0.000007 -0.000001 0.000001 -0.000002 0.000000 -0.000000 -0.000004 0.000000 -0.000000 0.000004 0.000001 -0.000001 -0.000003 0.000001 -0.000001 0.000002 0.000001 0.000001 0.000001 -0.000000 0.000000 0.000003 0.000000 0.000001 0.000001 0.000000 -0.000000 0.000001 0.000001 0.000000 0.000001 -0.000001 20.252378 2.933601 -14.345737 -3.123428 53.395236 -43.833907 -9.151831 -31.297484 -24.175953 -5.397338 -71.625892 -40.987453 -0.000003 0.000003 0.000004 -0.000001 0.000000 -0.000002 -0.000001 -0.000001 -0.000000 0.000003 0.000002 0.000001 -0.000001 0.000001 0.000005 -0.000001 0.000001 -0.000002 -0.000001 0.000000 -0.000001 -0.000001 -0.000001 0.000000 0.000002 0.000001 0.000002 -0.000001 0.000001 0.000002 0.000000 0.000001 -0.000002 -0.000003 0.000001 -0.000001 0.000000 0.000002 0.000000 0.000001 0.000002 -0.000002 -0.000001 0.000000 -0.000002 0.000001 0.000001 -0.000000 0.000001 0.000001 -0.000001 0.000001 0.000002 0.000001 -0.000000 0.000001 0.000000 -0.000001 0.000000 0.000000 -19.992855 1.457266 -23.869310 22.217296 0.516834 -0.988395 -5.240723 5.000939 -7.119376 0.000002 -0.001911 -0.000036 -0.000000 0.000001 -0.000000 -24.448594 -11.730928 11.078795 18.798641 -0.499752 -2.801206 -4.901059 -1.499427 -0.429204 0.000033 0.000537 0.000006 -0.000000 -0.000000 0.000000 
-118.768188 32.922089 -193.538361 13.112977 -4.064999 -66.117146 15.781922 7.718952 1.205569 7.017987 3.388330 0.797779 12.271968 5.979618 1.121996 13.383296 6.268531 8.586096 -11.708883 7.948862 18.101664 0.000001 0.000002 0.000001 24.215652 -8.839499 12.417064 16.998305 -62.249620 53.474050 24.174925 10.520714 29.992112 5.311769 34.204597 0.626720 0.000001 0.000000 -0.000001 -0.000001 -0.000002 0.000003 -0.000001 0.000002 -0.000000 0.000002 0.000000 -0.000000 -0.000000 0.000000 -0.000000 0.000001 0.000002 -0.000001 -0.000000 0.000002 -0.000001 0.000001 -0.000001 -0.000000 0.000000 0.000002 -0.000000 -0.000000 -0.000001 -0.000000 -0.000000 -0.000001 0.000000 0.000000 0.000001 0.000001 -0.000000 0.000001 -0.000000 0.000001 0.000002 0.000000 -0.000001 0.000002 -0.000001 0.000001 -0.000002 0.000001 0.000000 -0.000000 -0.000000 -0.000000 0.000003 -0.000000 0.000000 -0.000001 -0.000001 -0.000000 0.000004 -0.000000 20.179736 3.048907 -14.482776 -4.045299 53.247229 -42.532872 -10.525824 -30.905940 -24.059852 -6.080675 -71.091430 -42.000128 -0.000002 0.000000 0.000004 0.000001 0.000001 0.000000 0.000001 0.000000 -0.000000 -0.000001 0.000000 -0.000001 -0.000002 0.000000 0.000002 0.000001 0.000001 -0.000002 -0.000001 0.000000 0.000002 -0.000001 0.000001 0.000001 -0.000001 0.000001 0.000002 -0.000002 0.000001 0.000001 -0.000001 0.000000 -0.000002 -0.000002 -0.000000 -0.000002 -0.000002 0.000001 0.000000 -0.000004 0.000002 -0.000001 -0.000002 0.000000 0.000002 -0.000001 0.000000 -0.000001 -0.000002 0.000001 -0.000001 0.000001 0.000002 -0.000003 -0.000002 0.000001 -0.000002 -0.000001 0.000002 -0.000003 -19.666565 2.001931 -23.971165 22.458606 0.359376 -1.897168 -5.263442 5.072551 -7.127976 0.000004 -0.001907 -0.000030 -0.000000 0.000000 -0.000001 -23.974990 -11.886454 11.435962 18.854138 -0.582408 -2.814022 -4.895094 -1.387499 0.450446 0.000023 0.000553 0.000009 -0.000000 0.000000 -0.000002 
-118.761871 32.630905 -193.480804 12.725237 -4.012399 -67.321288 15.741843 7.743117 1.189670 6.999900 3.399731 0.790896 12.240671 5.998904 1.109766 13.368053 6.516233 8.859983 -11.770579 8.284970 18.703010 0.000001 0.000001 -0.000001 24.001450 -8.827674 12.201258 16.847536 -62.493656 52.957520 24.306871 10.334791 30.023169 5.224592 34.012399 0.655079 -0.000001 0.000002 0.000001 0.000001 -0.000000 0.000002 0.000000 -0.000002 -0.000002 0.000001 0.000002 -0.000000 -0.000000 0.000002 0.000000 -0.000000 -0.000001 0.000000 -0.000001 0.000001 -0.000001 -0.000000 -0.000001 0.000000 0.000000 0.000004 -0.000000 -0.000000 0.000003 -0.000001 -0.000000 0.000002 -0.000000 0.000000 0.000002 0.000000 0.000000 0.000004 -0.000000 0.000000 -0.000002 -0.000000 0.000000 -0.000000 0.000000 0.000000 0.000001 0.000000 0.000000 0.000002 -0.000000 -0.000000 0.000001 0.000000 -0.000001 0.000001 -0.000000 -0.000000 0.000000 0.000000 20.103589 3.163725 -14.617955 -4.940811 53.090859 -41.243469 -11.884377 -30.511814 -23.917065 -6.719593 -70.554536 -42.970144 -0.000003 0.000002 0.000000 -0.000003 0.000002 -0.000003 -0.000000 0.000003 -0.000000 0.000003 0.000000 0.000001 -0.000002 0.000001 -0.000000 0.000003 0.000000 0.000003 -0.000001 -0.000000 0.000003 -0.000000 -0.000001 0.000002 -0.000000 0.000002 0.000001 -0.000002 0.000001 -0.000001 -0.000002 0.000000 0.000002 -0.000000 -0.000001 0.000004 -0.000001 0.000001 -0.000002 -0.000002 -0.000000 -0.000001 -0.000002 0.000001 0.000003 0.000001 0.000001 -0.000000 -0.000001 0.000002 -0.000002 0.000001 0.000002 -0.000002 -0.000002 0.000000 0.000002 0.000000 0.000001 -0.000005 -19.350800 2.553145 -24.073753 22.702830 0.205820 -2.805205 -5.289042 5.143126 -7.136790 0.000003 -0.001906 -0.000034 0.000000 -0.000000 0.000001 -23.497896 -12.031814 11.795293 18.910750 -0.664254 -2.826956 -4.888411 -1.274350 1.329902 0.000029 0.000553 0.000013 -0.000000 -0.000000 0.000001 
-118.754677 32.329426 -193.426331 12.300425 -3.966458 -68.564663 15.702388 7.772277 1.188115 6.982312 3.412846 0.790546 12.209796 6.021676 1.108856 13.360427 6.780624 9.122521 -11.823170 8.656417 19.290807 -0.000001 -0.000001 0.000001 23.813390 -8.830916 11.972407 16.664372 -62.726033 52.426876 24.445250 10.127017 29.999926 5.167922 33.777177 0.684486 -0.000000 0.000003 -0.000001 -0.000001 -0.000003 0.000000 0.000000 -0.000005 0.000003 0.000001 0.000002 -0.000002 0.000000 0.000002 -0.000001 -0.000000 -0.000002 0.000001 0.000000 0.000002 -0.000001 0.000000 0.000004 -0.000000 -0.000000 0.000005 -0.000001 -0.000000 0.000003 -0.000001 -0.000000 0.000004 -0.000000 -0.000000 -0.000000 -0.000001 0.000000 0.000005 -0.000001 -0.000000 0.000005 0.000000 -0.000000 0.000002 -0.000000 0.000000 0.000002 0.000000 0.000000 0.000004 -0.000000 0.000000 0.000002 -0.000001 0.000000 0.000003 -0.000000 -0.000001 0.000005 -0.000001 19.997489 3.277576 -14.745854 -5.814257 53.002224 -39.968570 -13.201362 -30.135539 -23.741570 -7.101125 -70.116584 -43.399172 -0.000001 0.000003 0.000004 0.000001 -0.000001 0.000002 0.000001 0.000001 -0.000006 -0.000002 0.000000 0.000003 -0.000001 -0.000000 0.000004 0.000000 0.000000 0.000002 -0.000001 -0.000000 0.000003 -0.000001 0.000001 -0.000003 0.000000 0.000001 0.000003 -0.000002 0.000001 0.000004 -0.000002 0.000001 0.000001 -0.000000 0.000002 -0.000003 0.000000 -0.000000 0.000000 -0.000001 0.000001 0.000006 -0.000002 0.000000 -0.000001 -0.000000 -0.000000 0.000001 0.000000 0.000001 0.000001 0.000001 0.000001 0.000001 -0.000001 0.000000 0.000002 0.000000 -0.000000 0.000002 -19.051414 3.163660 -24.264834 22.941386 0.016101 -3.676837 -5.313576 5.257539 -7.177433 0.000004 -0.001914 -0.000037 -0.000000 -0.000001 -0.000001 -22.997708 -12.161629 12.116863 18.950607 -0.705058 -2.765671 -4.873086 -1.143231 2.219349 0.000026 0.000542 0.000008 0.000000 -0.000000 -0.000003 
-118.750954 32.015770 -193.377441 11.822759 -3.934514 -69.860411 15.671195 7.813343 1.201949 6.968613 3.430734 0.797585 12.185542 6.053415 1.120327 13.358201 7.069312 9.368739 -11.873022 9.078821 19.859771 -0.000001 0.000000 0.000000 23.652298 -8.853162 11.722952 16.439587 -62.941067 51.888107 24.589811 9.875208 29.906147 5.158739 33.466892 0.716034 0.000001 0.000001 0.000003 -0.000003 -0.000003 0.000000 0.000002 -0.000003 0.000001 0.000002 0.000001 0.000003 0.000000 0.000003 -0.000001 -0.000000 0.000007 -0.000000 0.000000 0.000002 -0.000001 0.000000 -0.000002 0.000000 -0.000000 0.000003 -0.000000 -0.000001 0.000002 -0.000001 -0.000001 0.000001 0.000000 -0.000000 0.000000 -0.000001 0.000000 0.000003 -0.000000 -0.000000 -0.000004 -0.000000 -0.000000 -0.000004 0.000000 -0.000000 -0.000000 -0.000000 0.000001 0.000001 0.000001 0.000000 -0.000002 0.000000 0.000000 0.000003 -0.000001 -0.000000 0.000006 0.000001 19.845540 3.390073 -14.865012 -6.683801 52.984226 -38.715845 -14.528497 -29.770677 -23.534223 -7.156782 -69.799260 -43.002878 -0.000002 0.000002 0.000000 0.000001 0.000001 0.000002 -0.000001 0.000002 0.000001 -0.000001 -0.000003 0.000006 -0.000002 0.000000 -0.000001 -0.000001 -0.000001 -0.000001 -0.000001 -0.000001 -0.000002 0.000001 0.000000 0.000005 -0.000001 0.000000 0.000000 -0.000000 -0.000001 0.000003 -0.000002 -0.000001 -0.000001 -0.000000 -0.000000 -0.000004 -0.000001 0.000000 0.000002 -0.000000 0.000001 0.000002 0.000001 0.000001 -0.000004 -0.000000 -0.000001 -0.000002 -0.000001 -0.000000 -0.000001 0.000001 -0.000001 0.000001 -0.000000 0.000000 0.000000 0.000000 -0.000001 -0.000002 -18.768168 3.877583 -24.603001 23.173357 -0.260889 -4.507040 -5.336226 5.419807 -7.255912 0.000004 -0.001903 -0.000035 0.000000 0.000000 -0.000002 -22.477627 -12.269655 12.386382 18.970524 -0.688826 -2.618959 -4.842573 -0.990866 3.137593 0.000037 0.000541 0.000010 0.000000 0.000000 0.000003 
